<svg width="173.387" height="29.956" viewBox="0 0 173.387 29.956" xmlns="http://www.w3.org/2000/svg"><g id="svgGroup" stroke-linecap="round" fill-rule="evenodd" font-size="9pt" stroke="#56009b" stroke-width="0.25mm" fill="#56009b" style="stroke:#56009b;stroke-width:0.25mm;fill:#56009b"><path d="M 11.924 14.502 L 12.041 14.502 Q 12.246 13.711 12.488 12.942 A 31.032 31.032 0 0 1 12.739 12.181 Q 12.894 11.727 13.081 11.221 Q 13.345 10.491 13.707 9.571 A 96.563 96.563 0 0 1 13.828 9.265 Q 14.268 8.159 14.758 7.017 A 63.154 63.154 0 0 1 15.363 5.651 A 51.601 51.601 0 0 1 15.718 4.893 A 21.382 21.382 0 0 1 16.03 4.265 Q 16.317 3.71 16.567 3.325 Q 16.966 2.715 17.423 2.369 A 2.534 2.534 0 0 1 17.585 2.256 A 1.865 1.865 0 0 1 18.047 2.049 Q 18.489 1.913 19.119 1.905 A 6.317 6.317 0 0 1 19.204 1.904 L 21.123 1.904 A 4.243 4.243 0 0 1 21.681 1.939 Q 21.97 1.977 22.214 2.058 A 2.252 2.252 0 0 1 22.405 2.131 Q 22.802 2.305 23.024 2.841 A 2.782 2.782 0 0 1 23.145 3.208 A 7.481 7.481 0 0 1 23.234 3.609 Q 23.32 4.046 23.402 4.661 A 31.356 31.356 0 0 1 23.452 5.054 Q 23.564 5.985 23.651 7.465 A 89.772 89.772 0 0 1 23.701 8.423 Q 23.804 10.576 23.862 13.953 Q 23.921 17.319 23.921 22.266 A 1064.797 1064.797 0 0 1 23.921 22.295 A 0.65 0.65 0 0 1 23.881 22.526 A 0.584 0.584 0 0 1 23.745 22.734 A 0.578 0.578 0 0 1 23.328 22.91 A 0.703 0.703 0 0 1 23.32 22.91 L 19.98 22.91 Q 19.731 22.91 19.556 22.734 A 0.593 0.593 0 0 1 19.384 22.367 A 0.809 0.809 0 0 1 19.38 22.28 L 19.38 15.718 A 869.399 869.399 0 0 0 19.379 14.428 Q 19.376 12.702 19.367 11.429 A 295.014 295.014 0 0 0 19.365 11.25 A 402.918 402.918 0 0 0 19.357 10.409 Q 19.349 9.589 19.339 8.961 A 122.906 122.906 0 0 0 19.329 8.43 A 57.591 57.591 0 0 0 19.316 7.936 Q 19.296 7.24 19.263 6.812 L 19.175 6.812 A 133.191 133.191 0 0 0 18.373 8.699 A 177.42 177.42 0 0 0 17.52 10.789 Q 16.641 12.979 15.806 15.3 A 87.025 87.025 0 0 0 14.479 19.279 A 78.717 78.717 0 0 0 14.312 19.834 A 3.687 3.687 0 0 1 14.197 20.173 Q 14.064 20.507 13.896 20.69 A 0.883 0.883 0 0 1 13.835 20.75 Q 13.55 21.006 12.539 21.006 L 10.854 21.006 A 5.321 5.321 0 0 1 10.481 20.994 Q 9.926 20.955 9.707 20.788 A 0.483 0.483 0 0 1 9.705 20.786 A 0.799 0.799 0 0 1 9.542 20.61 Q 9.358 20.349 9.214 19.834 A 145.179 145.179 0 0 0 8.705 18.116 A 172.5 172.5 0 0 0 8.145 16.304 A 133.582 133.582 0 0 0 6.936 12.649 A 129.792 129.792 0 0 0 6.324 10.924 A 102.527 102.527 0 0 0 5.735 9.338 A 68.503 68.503 0 0 0 5.318 8.272 Q 4.986 7.443 4.702 6.812 L 4.614 6.812 Q 4.534 8 4.467 9.541 A 190.279 190.279 0 0 0 4.409 11.016 A 269.17 269.17 0 0 0 4.33 13.597 A 341.002 341.002 0 0 0 4.27 16.392 A 461.764 461.764 0 0 0 4.204 22.31 A 0.645 0.645 0 0 1 4.17 22.522 A 0.551 0.551 0 0 1 4.028 22.742 Q 3.853 22.91 3.604 22.91 L 0.601 22.91 Q 0.352 22.91 0.176 22.734 A 0.593 0.593 0 0 1 0.005 22.367 A 0.809 0.809 0 0 1 0 22.28 Q 0.013 15.616 0.233 11.247 A 103.109 103.109 0 0 1 0.315 9.814 A 139.702 139.702 0 0 1 0.449 7.924 Q 0.649 5.357 0.871 4.067 A 10.454 10.454 0 0 1 0.967 3.574 Q 1.099 2.988 1.345 2.632 A 1.276 1.276 0 0 1 1.794 2.219 A 2.692 2.692 0 0 1 2.734 1.929 A 3.372 3.372 0 0 1 3.149 1.904 L 5.522 1.904 A 3.606 3.606 0 0 1 5.941 1.927 Q 6.433 1.985 6.702 2.19 A 2.033 2.033 0 0 1 6.925 2.393 Q 7.228 2.706 7.617 3.296 Q 7.886 3.7 8.242 4.441 A 22.495 22.495 0 0 1 8.386 4.746 A 46.851 46.851 0 0 1 8.842 5.766 A 61.302 61.302 0 0 1 9.316 6.892 A 84.636 84.636 0 0 1 10.232 9.221 Q 10.529 10.012 10.753 10.66 A 35.938 35.938 0 0 1 10.942 11.221 A 61.218 61.218 0 0 1 11.357 12.488 A 55.029 55.029 0 0 1 11.484 12.898 Q 11.733 13.711 11.924 14.502 Z M 100.884 14.502 L 101.001 14.502 Q 101.206 13.711 101.448 12.942 A 31.032 31.032 0 0 1 101.698 12.181 Q 101.854 11.727 102.041 11.221 Q 102.305 10.491 102.667 9.571 A 96.563 96.563 0 0 1 102.788 9.265 Q 103.228 8.159 103.718 7.017 A 63.154 63.154 0 0 1 104.323 5.651 A 51.601 51.601 0 0 1 104.678 4.893 A 21.382 21.382 0 0 1 104.99 4.265 Q 105.277 3.71 105.527 3.325 Q 105.926 2.715 106.383 2.369 A 2.534 2.534 0 0 1 106.545 2.256 A 1.865 1.865 0 0 1 107.007 2.049 Q 107.449 1.913 108.079 1.905 A 6.317 6.317 0 0 1 108.164 1.904 L 110.083 1.904 A 4.243 4.243 0 0 1 110.641 1.939 Q 110.93 1.977 111.174 2.058 A 2.252 2.252 0 0 1 111.365 2.131 Q 111.762 2.305 111.984 2.841 A 2.782 2.782 0 0 1 112.104 3.208 A 7.481 7.481 0 0 1 112.194 3.609 Q 112.28 4.046 112.362 4.661 A 31.356 31.356 0 0 1 112.412 5.054 Q 112.524 5.985 112.611 7.465 A 89.772 89.772 0 0 1 112.661 8.423 Q 112.764 10.576 112.822 13.953 Q 112.881 17.319 112.881 22.266 A 1064.797 1064.797 0 0 1 112.881 22.295 A 0.65 0.65 0 0 1 112.841 22.526 A 0.584 0.584 0 0 1 112.705 22.734 A 0.578 0.578 0 0 1 112.288 22.91 A 0.703 0.703 0 0 1 112.28 22.91 L 108.94 22.91 Q 108.691 22.91 108.516 22.734 A 0.593 0.593 0 0 1 108.344 22.367 A 0.809 0.809 0 0 1 108.34 22.28 L 108.34 15.718 A 869.399 869.399 0 0 0 108.339 14.428 Q 108.336 12.702 108.327 11.429 A 295.014 295.014 0 0 0 108.325 11.25 A 402.918 402.918 0 0 0 108.317 10.409 Q 108.309 9.589 108.298 8.961 A 122.906 122.906 0 0 0 108.289 8.43 A 57.591 57.591 0 0 0 108.276 7.936 Q 108.256 7.24 108.223 6.812 L 108.135 6.812 A 133.191 133.191 0 0 0 107.333 8.699 A 177.42 177.42 0 0 0 106.479 10.789 Q 105.601 12.979 104.766 15.3 A 87.025 87.025 0 0 0 103.439 19.279 A 78.717 78.717 0 0 0 103.271 19.834 A 3.687 3.687 0 0 1 103.157 20.173 Q 103.024 20.507 102.856 20.69 A 0.883 0.883 0 0 1 102.795 20.75 Q 102.51 21.006 101.499 21.006 L 99.814 21.006 A 5.321 5.321 0 0 1 99.441 20.994 Q 98.886 20.955 98.667 20.788 A 0.483 0.483 0 0 1 98.665 20.786 A 0.799 0.799 0 0 1 98.502 20.61 Q 98.318 20.349 98.174 19.834 A 145.179 145.179 0 0 0 97.665 18.116 A 172.5 172.5 0 0 0 97.104 16.304 A 133.582 133.582 0 0 0 95.896 12.649 A 129.792 129.792 0 0 0 95.284 10.924 A 102.527 102.527 0 0 0 94.695 9.338 A 68.503 68.503 0 0 0 94.278 8.272 Q 93.946 7.443 93.662 6.812 L 93.574 6.812 Q 93.494 8 93.427 9.541 A 190.279 190.279 0 0 0 93.369 11.016 A 269.17 269.17 0 0 0 93.29 13.597 A 341.002 341.002 0 0 0 93.23 16.392 A 461.764 461.764 0 0 0 93.164 22.31 A 0.645 0.645 0 0 1 93.13 22.522 A 0.551 0.551 0 0 1 92.988 22.742 Q 92.813 22.91 92.563 22.91 L 89.561 22.91 Q 89.312 22.91 89.136 22.734 A 0.593 0.593 0 0 1 88.964 22.367 A 0.809 0.809 0 0 1 88.96 22.28 Q 88.972 15.616 89.193 11.247 A 103.109 103.109 0 0 1 89.275 9.814 A 139.702 139.702 0 0 1 89.409 7.924 Q 89.609 5.357 89.831 4.067 A 10.454 10.454 0 0 1 89.927 3.574 Q 90.059 2.988 90.305 2.632 A 1.276 1.276 0 0 1 90.754 2.219 A 2.692 2.692 0 0 1 91.694 1.929 A 3.372 3.372 0 0 1 92.109 1.904 L 94.482 1.904 A 3.606 3.606 0 0 1 94.901 1.927 Q 95.393 1.985 95.662 2.19 A 2.033 2.033 0 0 1 95.885 2.393 Q 96.188 2.706 96.577 3.296 Q 96.846 3.7 97.202 4.441 A 22.495 22.495 0 0 1 97.346 4.746 A 46.851 46.851 0 0 1 97.802 5.766 A 61.302 61.302 0 0 1 98.276 6.892 A 84.636 84.636 0 0 1 99.192 9.221 Q 99.489 10.012 99.713 10.66 A 35.938 35.938 0 0 1 99.902 11.221 A 61.218 61.218 0 0 1 100.317 12.488 A 55.029 55.029 0 0 1 100.444 12.898 Q 100.693 13.711 100.884 14.502 Z M 148.462 9.316 L 148.462 21.196 A 11.96 11.96 0 0 1 148.2 23.781 Q 147.831 25.447 146.943 26.68 A 6.814 6.814 0 0 1 146.023 27.715 A 8.137 8.137 0 0 1 142.503 29.583 Q 141.07 29.956 139.336 29.956 A 19.696 19.696 0 0 1 138.309 29.931 Q 137.258 29.876 136.553 29.7 Q 135.527 29.443 135 29.209 A 1.934 1.934 0 0 1 134.833 29.12 Q 134.673 29.023 134.593 28.92 A 0.442 0.442 0 0 1 134.561 28.872 Q 134.428 28.66 134.266 28.269 A 9.318 9.318 0 0 1 134.231 28.184 A 10.307 10.307 0 0 1 134.016 27.598 A 12.781 12.781 0 0 1 133.887 27.188 Q 133.843 26.982 133.872 26.88 A 0.686 0.686 0 0 1 133.937 26.758 Q 133.996 26.668 134.092 26.572 A 3.695 3.695 0 0 1 134.279 26.399 Q 134.501 26.205 134.825 25.973 A 11.912 11.912 0 0 1 134.846 25.957 A 8.39 8.39 0 0 1 135.077 25.797 Q 135.403 25.58 135.601 25.503 A 0.746 0.746 0 0 1 135.734 25.467 Q 135.786 25.458 135.836 25.458 A 0.558 0.558 0 0 1 136.113 25.532 Q 136.457 25.717 137.07 25.945 A 16.825 16.825 0 0 0 137.205 25.994 Q 137.879 26.237 139.076 26.249 A 12.528 12.528 0 0 0 139.204 26.25 A 6.514 6.514 0 0 0 140.663 26.095 A 4.519 4.519 0 0 0 142.544 25.195 A 3.327 3.327 0 0 0 143.628 23.513 Q 143.833 22.819 143.833 21.943 L 143.833 21.416 L 143.774 21.416 A 4.606 4.606 0 0 1 143.43 21.804 Q 143.212 22.025 142.939 22.251 Q 142.478 22.633 141.773 22.909 A 6.347 6.347 0 0 1 141.614 22.969 Q 141.023 23.182 140.189 23.24 A 9.533 9.533 0 0 1 139.526 23.262 Q 137.314 23.262 135.901 22.302 A 5.568 5.568 0 0 1 133.866 19.769 A 6.753 6.753 0 0 1 133.821 19.658 A 9.333 9.333 0 0 1 133.264 17.493 A 12.236 12.236 0 0 1 133.154 15.82 A 12.292 12.292 0 0 1 133.373 13.453 A 9.786 9.786 0 0 1 133.931 11.587 A 6.117 6.117 0 0 1 136.535 8.623 A 11.502 11.502 0 0 1 136.538 8.621 A 6.832 6.832 0 0 1 138.248 7.914 Q 139.043 7.698 139.987 7.603 A 15.674 15.674 0 0 1 141.548 7.529 A 21.665 21.665 0 0 1 142.891 7.568 Q 143.938 7.634 144.749 7.808 Q 146.045 8.086 146.924 8.496 A 17.382 17.382 0 0 1 147.724 8.893 Q 148.097 9.092 148.419 9.29 A 10.515 10.515 0 0 1 148.462 9.316 Z M 82.017 16.816 L 75.732 16.816 A 3.991 3.991 0 0 0 75.929 17.808 A 2.805 2.805 0 0 0 76.838 19.116 Q 77.707 19.811 79.125 19.896 A 6.769 6.769 0 0 0 79.526 19.907 A 7.361 7.361 0 0 0 80.371 19.862 Q 80.796 19.813 81.149 19.71 A 3.23 3.23 0 0 0 81.687 19.504 Q 82.5 19.102 82.822 18.867 A 0.959 0.959 0 0 1 83.406 18.676 A 1.118 1.118 0 0 1 83.452 18.677 Q 83.73 18.677 84.25 18.787 Q 84.771 18.896 85.283 19.189 A 0.884 0.884 0 0 1 85.46 19.308 A 0.524 0.524 0 0 1 85.649 19.717 Q 85.649 19.907 85.576 20.259 Q 85.532 20.464 85.43 20.852 Q 85.327 21.24 85.166 21.577 Q 85.078 21.738 84.888 21.885 Q 84.595 22.09 83.943 22.427 A 4.834 4.834 0 0 1 83.438 22.649 Q 82.903 22.852 82.163 23.02 A 8.964 8.964 0 0 1 81.238 23.176 Q 80.39 23.276 79.307 23.276 A 12.995 12.995 0 0 1 77.264 23.124 Q 76.03 22.927 75 22.478 A 6.049 6.049 0 0 1 72.158 19.995 A 6.566 6.566 0 0 1 71.433 18.2 Q 71.228 17.381 71.17 16.419 A 12.952 12.952 0 0 1 71.147 15.645 A 12.448 12.448 0 0 1 71.348 13.335 Q 71.595 12.029 72.146 11.012 A 6.108 6.108 0 0 1 73.198 9.595 A 6.876 6.876 0 0 1 77.021 7.674 A 9.763 9.763 0 0 1 78.647 7.544 A 10.291 10.291 0 0 1 80.332 7.674 Q 81.481 7.865 82.39 8.335 A 5.816 5.816 0 0 1 84.001 9.54 A 5.326 5.326 0 0 1 84.719 10.518 A 6.035 6.035 0 0 1 85.479 12.933 A 7.466 7.466 0 0 1 85.518 13.696 A 5.333 5.333 0 0 1 85.455 14.548 Q 85.382 14.993 85.228 15.34 A 1.999 1.999 0 0 1 84.624 16.128 A 2.919 2.919 0 0 1 83.734 16.583 Q 83.014 16.816 82.017 16.816 Z M 130.005 13.945 L 130.005 22.236 A 0.839 0.839 0 0 1 129.969 22.487 A 0.706 0.706 0 0 1 129.851 22.712 A 0.466 0.466 0 0 1 129.64 22.862 Q 129.56 22.892 129.46 22.903 A 1.154 1.154 0 0 1 129.331 22.91 L 127.134 22.91 A 1.424 1.424 0 0 1 126.915 22.894 A 1.072 1.072 0 0 1 126.716 22.844 A 0.693 0.693 0 0 1 126.529 22.74 Q 126.448 22.678 126.372 22.588 L 125.464 21.416 L 125.361 21.416 A 3.809 3.809 0 0 1 123.552 22.837 A 6.346 6.346 0 0 1 122.166 23.192 A 8.583 8.583 0 0 1 120.938 23.276 A 6.217 6.217 0 0 1 119.504 23.12 A 4.229 4.229 0 0 1 117.517 22.068 A 3.981 3.981 0 0 1 116.368 19.945 A 5.901 5.901 0 0 1 116.25 18.735 A 5.269 5.269 0 0 1 116.495 17.115 A 4.889 4.889 0 0 1 116.653 16.692 A 3.621 3.621 0 0 1 117.385 15.603 A 4.946 4.946 0 0 1 118.059 15.022 Q 119.063 14.297 120.872 13.857 Q 122.18 13.54 124.013 13.413 A 34.732 34.732 0 0 1 125.493 13.345 A 4.205 4.205 0 0 0 125.44 12.654 Q 125.306 11.847 124.827 11.426 Q 124.16 10.84 122.827 10.84 Q 121.915 10.84 121.256 11.077 A 2.874 2.874 0 0 0 120.864 11.25 A 31.271 31.271 0 0 0 120.599 11.395 Q 120.198 11.615 120.011 11.738 A 1.628 1.628 0 0 0 119.912 11.807 Q 119.715 11.976 119.436 11.941 A 0.84 0.84 0 0 1 119.414 11.938 A 4.61 4.61 0 0 1 118.953 11.845 A 5.884 5.884 0 0 1 118.572 11.733 A 23.471 23.471 0 0 1 118.109 11.576 A 29.439 29.439 0 0 1 117.612 11.396 Q 117.539 11.367 117.451 11.301 A 0.247 0.247 0 0 1 117.364 11.176 A 0.366 0.366 0 0 1 117.349 11.104 A 0.948 0.948 0 0 1 117.351 11.046 Q 117.354 10.991 117.363 10.92 A 2.168 2.168 0 0 1 117.373 10.859 Q 117.387 10.769 117.417 10.617 A 20.846 20.846 0 0 1 117.437 10.518 Q 117.476 10.318 117.543 10.055 A 16.877 16.877 0 0 1 117.612 9.792 Q 117.709 9.436 117.796 9.214 A 2.396 2.396 0 0 1 117.832 9.126 Q 117.964 8.877 118.271 8.657 Q 118.472 8.492 119.329 8.165 A 26.121 26.121 0 0 1 119.78 7.998 A 6.049 6.049 0 0 1 120.678 7.759 Q 121.63 7.574 122.977 7.548 A 23.429 23.429 0 0 1 123.428 7.544 Q 128.62 7.544 129.713 11.533 A 9.138 9.138 0 0 1 130.005 13.945 Z M 50.288 10.005 L 50.288 9.932 Q 50.288 10.884 50.632 12.429 A 26.731 26.731 0 0 0 51.163 14.427 A 32.831 32.831 0 0 0 51.577 15.688 A 21.725 21.725 0 0 0 52.493 17.913 A 18.655 18.655 0 0 0 52.969 18.838 L 53.042 18.838 A 16.182 16.182 0 0 0 54.083 16.806 A 18.054 18.054 0 0 0 54.214 16.494 A 23.292 23.292 0 0 0 55.078 13.975 A 27.698 27.698 0 0 0 55.388 12.766 A 20.512 20.512 0 0 0 55.613 11.66 Q 55.792 10.629 55.796 9.976 A 4.835 4.835 0 0 0 55.796 9.946 L 55.796 10.005 A 1.36 1.36 0 0 1 55.81 9.801 Q 55.842 9.594 55.942 9.463 A 7.942 7.942 0 0 1 56.358 8.997 A 10.071 10.071 0 0 1 56.733 8.628 A 10.645 10.645 0 0 1 57.167 8.245 Q 57.394 8.055 57.655 7.855 A 18.335 18.335 0 0 1 57.832 7.72 A 1.005 1.005 0 0 1 57.963 7.639 Q 58.036 7.603 58.105 7.586 A 0.466 0.466 0 0 1 58.213 7.573 A 0.563 0.563 0 0 1 58.532 7.674 A 0.738 0.738 0 0 1 58.594 7.72 Q 59.253 8.203 59.707 8.628 A 8.49 8.49 0 0 1 60.152 9.075 A 6.519 6.519 0 0 1 60.483 9.463 A 0.662 0.662 0 0 1 60.595 9.693 Q 60.63 9.819 60.63 9.976 L 60.63 10.005 L 60.63 9.946 L 60.63 9.976 Q 60.615 10.767 60.22 12.195 Q 59.825 13.622 59.159 15.326 A 17.178 17.178 0 0 1 59.158 15.33 Q 58.491 17.036 57.671 18.684 A 26.653 26.653 0 0 1 56.869 20.179 Q 56.453 20.898 56.028 21.509 A 16.321 16.321 0 0 1 56.001 21.548 A 8.078 8.078 0 0 1 55.706 21.953 Q 55.409 22.333 55.15 22.546 A 1.979 1.979 0 0 1 55.078 22.603 Q 54.731 22.863 53.954 22.903 A 5.777 5.777 0 0 1 53.657 22.91 L 52.104 22.91 Q 51.05 22.91 50.647 22.617 A 2.061 2.061 0 0 1 50.389 22.39 Q 50.139 22.134 49.857 21.716 A 8.643 8.643 0 0 1 49.746 21.548 A 23.488 23.488 0 0 1 48.946 20.176 A 31.618 31.618 0 0 1 48.157 18.611 A 43.985 43.985 0 0 1 46.736 15.242 A 41.437 41.437 0 0 1 46.171 13.633 Q 45.911 12.839 45.718 12.122 Q 45.401 10.946 45.348 10.221 A 3.76 3.76 0 0 1 45.337 9.946 A 0.875 0.875 0 0 1 45.364 9.725 A 0.656 0.656 0 0 1 45.498 9.463 Q 46.007 8.832 46.843 8.159 A 15.154 15.154 0 0 1 47.417 7.72 A 1.158 1.158 0 0 1 47.55 7.642 Q 47.621 7.608 47.686 7.591 A 0.494 0.494 0 0 1 47.813 7.573 A 0.56 0.56 0 0 1 48.013 7.612 Q 48.085 7.64 48.159 7.686 A 1.07 1.07 0 0 1 48.208 7.72 A 15.635 15.635 0 0 1 48.684 8.074 Q 48.939 8.272 49.155 8.46 A 8.546 8.546 0 0 1 49.343 8.628 A 8.228 8.228 0 0 1 49.77 9.049 A 6.237 6.237 0 0 1 50.127 9.463 A 0.625 0.625 0 0 1 50.245 9.683 Q 50.288 9.822 50.288 10.005 Z M 172.266 19.336 L 173.335 21.753 A 0.77 0.77 0 0 1 173.367 21.842 Q 173.455 22.153 173.159 22.295 Q 172.617 22.573 171.372 22.925 A 8.385 8.385 0 0 1 170.267 23.152 Q 169.716 23.23 169.083 23.259 A 17.113 17.113 0 0 1 168.296 23.276 A 11.236 11.236 0 0 1 165.844 23.024 Q 164.081 22.63 162.783 21.621 A 7.037 7.037 0 0 1 162.422 21.321 Q 160.427 19.546 160.243 16.171 A 12.903 12.903 0 0 1 160.225 15.469 A 10.25 10.25 0 0 1 160.417 13.431 A 7.444 7.444 0 0 1 161.235 11.206 Q 162.246 9.434 164.106 8.489 Q 165.967 7.544 168.501 7.544 Q 169.878 7.544 170.661 7.722 A 3.196 3.196 0 0 1 171.035 7.83 Q 171.722 8.078 171.967 8.232 A 0.756 0.756 0 0 1 172.031 8.276 A 1.43 1.43 0 0 1 172.529 8.804 A 1.095 1.095 0 0 1 172.586 8.906 Q 172.641 9.017 172.703 9.187 A 6.122 6.122 0 0 1 172.764 9.36 A 4.212 4.212 0 0 1 172.905 9.911 A 5.096 5.096 0 0 1 172.954 10.225 A 2.692 2.692 0 0 1 172.976 10.345 Q 173.013 10.588 172.978 10.716 A 0.309 0.309 0 0 1 172.969 10.745 A 0.384 0.384 0 0 1 172.917 10.835 Q 172.855 10.919 172.734 11.018 A 2.479 2.479 0 0 1 172.603 11.118 A 4.922 4.922 0 0 1 171.962 11.477 A 5.547 5.547 0 0 1 171.833 11.536 A 8.787 8.787 0 0 1 171.588 11.639 Q 171.334 11.742 171.152 11.792 Q 170.933 11.851 170.815 11.821 Q 170.72 11.797 170.565 11.695 A 2.455 2.455 0 0 1 170.493 11.646 A 2.755 2.755 0 0 0 170.328 11.541 Q 170.139 11.43 169.872 11.305 A 9.051 9.051 0 0 0 169.834 11.287 A 1.789 1.789 0 0 0 169.487 11.17 Q 169.141 11.089 168.662 11.089 A 3.715 3.715 0 0 0 166.853 11.558 A 3.458 3.458 0 0 0 165.673 12.629 A 4.276 4.276 0 0 0 165.461 12.964 A 3.839 3.839 0 0 0 165.06 14.019 Q 164.927 14.604 164.927 15.308 A 6.479 6.479 0 0 0 165.046 16.589 Q 165.202 17.363 165.563 17.96 A 3.531 3.531 0 0 0 166.033 18.574 A 3.674 3.674 0 0 0 168.168 19.668 A 5.22 5.22 0 0 0 168.999 19.731 A 7.578 7.578 0 0 0 169.655 19.705 Q 169.968 19.677 170.236 19.622 A 3.536 3.536 0 0 0 170.581 19.534 A 8.447 8.447 0 0 0 170.949 19.409 Q 171.325 19.272 171.577 19.131 A 1.258 1.258 0 0 1 171.682 19.079 Q 171.899 18.985 172.024 19.05 A 0.467 0.467 0 0 1 172.178 19.183 Q 172.228 19.248 172.266 19.336 Z M 29.443 21.313 A 6.781 6.781 0 0 0 29.986 21.759 Q 32.043 23.276 35.288 23.276 A 13.718 13.718 0 0 0 35.565 23.274 Q 39.176 23.201 41.265 21.211 Q 43.433 19.146 43.433 15.205 A 12.603 12.603 0 0 0 43.425 14.749 Q 43.381 13.538 43.1 12.527 A 6.204 6.204 0 0 0 41.265 9.485 A 7.373 7.373 0 0 0 37.946 7.806 A 10.86 10.86 0 0 0 35.493 7.544 A 13.957 13.957 0 0 0 35.312 7.545 Q 33.957 7.563 32.804 7.845 A 7.594 7.594 0 0 0 29.524 9.514 A 5.861 5.861 0 0 0 28.433 10.8 Q 27.789 11.825 27.508 13.177 A 11.27 11.27 0 0 0 27.29 15.469 Q 27.29 19.351 29.443 21.313 Z M 67.969 8.687 L 67.969 22.134 A 1.653 1.653 0 0 1 67.957 22.342 Q 67.928 22.568 67.831 22.692 A 0.403 0.403 0 0 1 67.786 22.742 Q 67.619 22.895 67.238 22.909 A 2.122 2.122 0 0 1 67.163 22.91 L 64.146 22.91 Q 63.706 22.91 63.523 22.742 Q 63.34 22.573 63.34 22.134 L 63.34 8.687 A 1.653 1.653 0 0 1 63.352 8.478 Q 63.381 8.253 63.478 8.128 A 0.403 0.403 0 0 1 63.523 8.079 Q 63.69 7.925 64.07 7.911 A 2.122 2.122 0 0 1 64.146 7.91 L 67.163 7.91 Q 67.603 7.91 67.786 8.079 Q 67.969 8.247 67.969 8.687 Z M 157.046 8.687 L 157.046 22.134 A 1.653 1.653 0 0 1 157.034 22.342 Q 157.005 22.568 156.908 22.692 A 0.403 0.403 0 0 1 156.863 22.742 Q 156.696 22.895 156.315 22.909 A 2.122 2.122 0 0 1 156.24 22.91 L 153.223 22.91 Q 152.783 22.91 152.6 22.742 Q 152.417 22.573 152.417 22.134 L 152.417 8.687 A 1.653 1.653 0 0 1 152.429 8.478 Q 152.458 8.253 152.555 8.128 A 0.403 0.403 0 0 1 152.6 8.079 Q 152.767 7.925 153.148 7.911 A 2.122 2.122 0 0 1 153.223 7.91 L 156.24 7.91 Q 156.68 7.91 156.863 8.079 Q 157.046 8.247 157.046 8.687 Z M 35.435 19.731 A 4.107 4.107 0 0 0 36.406 19.624 A 2.63 2.63 0 0 0 37.866 18.728 A 2.853 2.853 0 0 0 38.316 17.916 Q 38.62 17.105 38.674 15.862 A 12.935 12.935 0 0 0 38.687 15.293 A 10.307 10.307 0 0 0 38.635 14.221 Q 38.514 13.071 38.112 12.387 A 2.313 2.313 0 0 0 37.859 12.034 A 2.637 2.637 0 0 0 36.554 11.233 Q 36.04 11.089 35.405 11.089 Q 33.838 11.089 32.937 12.107 A 3.003 3.003 0 0 0 32.388 13.049 Q 32.06 13.918 32.038 15.217 A 11.186 11.186 0 0 0 32.036 15.41 A 10.58 10.58 0 0 0 32.09 16.515 Q 32.212 17.673 32.612 18.37 A 2.379 2.379 0 0 0 32.893 18.765 A 2.729 2.729 0 0 0 34.224 19.578 Q 34.763 19.731 35.435 19.731 Z M 143.833 17.769 L 143.833 11.719 A 2.307 2.307 0 0 0 143.567 11.554 Q 143.425 11.478 143.253 11.405 A 5.62 5.62 0 0 0 142.925 11.279 A 3.14 3.14 0 0 0 142.445 11.156 Q 141.989 11.074 141.387 11.074 A 4.023 4.023 0 0 0 140.314 11.209 A 2.837 2.837 0 0 0 138.794 12.217 A 3.543 3.543 0 0 0 138.249 13.251 Q 137.9 14.26 137.9 15.762 Q 137.9 19.114 140.363 19.481 A 4.362 4.362 0 0 0 141.006 19.526 Q 141.804 19.526 142.355 19.312 A 2.034 2.034 0 0 0 142.866 19.028 Q 143.511 18.53 143.833 17.769 Z M 62.783 2.651 A 0.524 0.524 0 0 0 62.666 2.988 A 0.495 0.495 0 0 0 62.783 3.318 Q 62.9 3.457 63.091 3.691 A 16.077 16.077 0 0 0 63.427 4.075 A 19.895 19.895 0 0 0 64.014 4.695 A 12.551 12.551 0 0 0 65.112 5.684 A 6.788 6.788 0 0 0 65.12 5.689 Q 65.29 5.817 65.394 5.877 A 0.783 0.783 0 0 0 65.457 5.911 Q 65.566 5.962 65.669 5.962 A 0.412 0.412 0 0 0 65.676 5.962 Q 65.731 5.961 65.789 5.946 A 0.671 0.671 0 0 0 65.889 5.911 A 0.565 0.565 0 0 0 65.942 5.884 Q 66.015 5.842 66.114 5.764 A 3.158 3.158 0 0 0 66.211 5.684 A 18.686 18.686 0 0 0 67.295 4.695 A 20.784 20.784 0 0 0 67.789 4.191 A 15.245 15.245 0 0 0 68.218 3.721 Q 68.372 3.534 68.48 3.405 A 18.742 18.742 0 0 1 68.547 3.325 Q 68.672 3.179 68.672 2.988 A 0.533 0.533 0 0 0 68.547 2.644 A 10.333 10.333 0 0 0 68.444 2.519 Q 68.351 2.408 68.232 2.271 Q 67.397 1.304 66.211 0.278 A 3.688 3.688 0 0 0 66.16 0.24 Q 65.924 0.068 65.774 0.019 A 0.347 0.347 0 0 0 65.669 0 A 0.239 0.239 0 0 0 65.652 0.001 Q 65.517 0.01 65.287 0.17 A 2.909 2.909 0 0 0 65.142 0.278 A 29.986 29.986 0 0 0 64.043 1.282 A 18.195 18.195 0 0 0 63.534 1.789 A 13.742 13.742 0 0 0 63.091 2.271 A 120.05 120.05 0 0 0 63.051 2.319 Q 62.888 2.52 62.783 2.651 Z M 151.86 2.651 A 0.524 0.524 0 0 0 151.743 2.988 A 0.495 0.495 0 0 0 151.86 3.318 Q 151.978 3.457 152.168 3.691 A 16.077 16.077 0 0 0 152.504 4.075 A 19.895 19.895 0 0 0 153.091 4.695 A 12.551 12.551 0 0 0 154.189 5.684 A 6.788 6.788 0 0 0 154.197 5.689 Q 154.368 5.817 154.471 5.877 A 0.783 0.783 0 0 0 154.534 5.911 Q 154.644 5.962 154.746 5.962 A 0.412 0.412 0 0 0 154.753 5.962 Q 154.808 5.961 154.866 5.946 A 0.671 0.671 0 0 0 154.966 5.911 A 0.565 0.565 0 0 0 155.019 5.884 Q 155.092 5.842 155.191 5.764 A 3.158 3.158 0 0 0 155.288 5.684 A 18.686 18.686 0 0 0 156.372 4.695 A 20.784 20.784 0 0 0 156.866 4.191 A 15.245 15.245 0 0 0 157.295 3.721 Q 157.449 3.534 157.557 3.405 A 18.742 18.742 0 0 1 157.625 3.325 Q 157.749 3.179 157.749 2.988 A 0.533 0.533 0 0 0 157.625 2.644 A 10.333 10.333 0 0 0 157.522 2.519 Q 157.428 2.408 157.31 2.271 Q 156.475 1.304 155.288 0.278 A 3.688 3.688 0 0 0 155.237 0.24 Q 155.002 0.068 154.851 0.019 A 0.347 0.347 0 0 0 154.746 0 A 0.239 0.239 0 0 0 154.729 0.001 Q 154.594 0.01 154.364 0.17 A 2.909 2.909 0 0 0 154.219 0.278 A 29.986 29.986 0 0 0 153.12 1.282 A 18.195 18.195 0 0 0 152.611 1.789 A 13.742 13.742 0 0 0 152.168 2.271 A 120.05 120.05 0 0 0 152.129 2.319 Q 151.965 2.52 151.86 2.651 Z M 75.703 13.813 L 80.479 13.813 A 1.175 1.175 0 0 0 80.765 13.782 Q 81.226 13.666 81.226 13.125 Q 81.226 12.085 80.574 11.375 A 2.056 2.056 0 0 0 79.65 10.805 Q 79.199 10.664 78.618 10.664 A 3.502 3.502 0 0 0 77.808 10.752 Q 77.233 10.888 76.835 11.239 A 2.089 2.089 0 0 0 76.531 11.572 A 4.22 4.22 0 0 0 75.895 12.873 A 5.649 5.649 0 0 0 75.703 13.813 Z M 125.464 17.769 L 125.464 16.143 A 21.146 21.146 0 0 0 124.399 16.167 Q 123.141 16.231 122.41 16.458 A 4.688 4.688 0 0 0 121.904 16.644 Q 121.39 16.871 121.136 17.17 A 1.171 1.171 0 0 0 121.055 17.278 A 1.93 1.93 0 0 0 120.718 18.369 A 2.128 2.128 0 0 0 120.758 18.8 Q 120.864 19.31 121.245 19.548 Q 121.772 19.878 122.549 19.878 A 4.206 4.206 0 0 0 123.327 19.811 Q 123.762 19.729 124.102 19.546 A 2.048 2.048 0 0 0 124.585 19.189 A 4.097 4.097 0 0 0 125.047 18.645 Q 125.287 18.302 125.409 17.949 A 2.377 2.377 0 0 0 125.464 17.769 Z M 45.337 10.005 L 45.337 9.932 L 45.337 9.946 L 45.337 10.005 Z" vector-effect="non-scaling-stroke"/></g></svg>